<svg xmlns="http://www.w3.org/2000/svg" height="24" viewBox="0 -960 960 960" width="24"><path d="m376-313.847 104-104 104 104L626.153-356l-104-104 104-104L584-606.153l-104 104-104-104L333.847-564l104 104-104 104L376-313.847Zm-83.691 173.846q-30.308 0-51.308-21t-21-51.308V-720h-40v-59.999H360v-35.384h240v35.384h179.999V-720h-40v507.691q0 30.308-21 51.308t-51.308 21H292.309ZM680-720H280v507.691q0 4.616 3.846 8.463 3.847 3.846 8.463 3.846h375.382q4.616 0 8.463-3.846 3.846-3.847 3.846-8.463V-720Zm-400 0v520-520Z"/></svg>