<svg width="24" height="24" viewBox="0 0 24 24" fill="none" xmlns="http://www.w3.org/2000/svg">
<path d="M8.25003 17.75H15.75V16.25H8.25003V17.75ZM8.25003 13.75H15.75V12.25H8.25003V13.75ZM6.30773 21.5C5.8026 21.5 5.37503 21.325 5.02503 20.975C4.67503 20.625 4.50003 20.1974 4.50003 19.6923V4.3077C4.50003 3.80257 4.67503 3.375 5.02503 3.025C5.37503 2.675 5.8026 2.5 6.30773 2.5H14.25L19.5 7.74995V19.6923C19.5 20.1974 19.325 20.625 18.975 20.975C18.625 21.325 18.1974 21.5 17.6923 21.5H6.30773ZM13.5 8.49995H18L13.5 3.99998V8.49995Z" fill="#FBBC04"/>
</svg>
