<svg xmlns="http://www.w3.org/2000/svg" height="24" viewBox="0 -960 960 960" width="24"><path d="M450.001-333.847h59.998v-176.77L584-437.847 626.153-480 480-626.153 333.847-480 376-437.847l74.001-72.77v176.77ZM292.309-140.001q-30.308 0-51.308-21t-21-51.308V-720h-40v-59.999H360v-35.384h240v35.384h179.999V-720h-40v507.691q0 30.308-21 51.308t-51.308 21H292.309ZM680-720H280v507.691q0 4.616 3.846 8.463 3.847 3.846 8.463 3.846h375.382q4.616 0 8.463-3.846 3.846-3.847 3.846-8.463V-720Zm-400 0v520-520Z"/></svg>