<svg width="24" height="24" viewBox="0 0 24 24" fill="none" xmlns="http://www.w3.org/2000/svg">
<path d="M20.5 7.21155V18.6923C20.5 19.1974 20.325 19.625 19.975 19.975C19.625 20.325 19.1974 20.5 18.6923 20.5H5.30773C4.8026 20.5 4.37503 20.325 4.02503 19.975C3.67503 19.625 3.50003 19.1974 3.50003 18.6923V5.30772C3.50003 4.80259 3.67503 4.37502 4.02503 4.02502C4.37503 3.67502 4.8026 3.50002 5.30773 3.50002H16.7885L20.5 7.21155ZM19 7.85L16.15 5H5.30773C5.21798 5 5.14426 5.02885 5.08656 5.08655C5.02886 5.14425 5.00001 5.21797 5.00001 5.30772V18.6923C5.00001 18.782 5.02886 18.8557 5.08656 18.9134C5.14426 18.9711 5.21798 19 5.30773 19H18.6923C18.782 19 18.8558 18.9711 18.9135 18.9134C18.9712 18.8557 19 18.782 19 18.6923V7.85ZM12 17.2692C12.6923 17.2692 13.282 17.0256 13.7692 16.5384C14.2564 16.0512 14.5 15.4615 14.5 14.7692C14.5 14.0769 14.2564 13.4872 13.7692 13C13.282 12.5128 12.6923 12.2692 12 12.2692C11.3077 12.2692 10.718 12.5128 10.2308 13C9.74362 13.4872 9.50003 14.0769 9.50003 14.7692C9.50003 15.4615 9.74362 16.0512 10.2308 16.5384C10.718 17.0256 11.3077 17.2692 12 17.2692ZM6.38466 9.8846H14.5961V6.38465H6.38466V9.8846ZM5.00001 7.85V19V5V7.85Z" fill="white"/>
</svg>
