<svg width="16" height="18" viewBox="0 0 16 18" fill="none" xmlns="http://www.w3.org/2000/svg">
<path d="M5.39997 13.1538L7.99997 10.5538L10.6 13.1538L11.6538 12.1L9.0538 9.49999L11.6538 6.89999L10.6 5.84617L7.99997 8.44617L5.39997 5.84617L4.34615 6.89999L6.94615 9.49999L4.34615 12.1L5.39997 13.1538ZM3.3077 17.5C2.80257 17.5 2.375 17.325 2.025 16.975C1.675 16.625 1.5 16.1974 1.5 15.6923V2.99999H0.5V1.50002H4.99997V0.615417H11V1.50002H15.5V2.99999H14.5V15.6923C14.5 16.1974 14.325 16.625 13.975 16.975C13.625 17.325 13.1974 17.5 12.6922 17.5H3.3077ZM13 2.99999H2.99997V15.6923C2.99997 15.7692 3.03203 15.8397 3.09613 15.9038C3.16024 15.9679 3.23077 16 3.3077 16H12.6922C12.7692 16 12.8397 15.9679 12.9038 15.9038C12.9679 15.8397 13 15.7692 13 15.6923V2.99999Z" fill="#4779FB"/>
</svg>
