<svg width="24" height="24" viewBox="0 0 24 24" fill="none" xmlns="http://www.w3.org/2000/svg">
<path d="M10.1539 17.673H11.0769V13.9808C11.4615 13.9808 11.7885 13.8462 12.0577 13.5769C12.3269 13.3077 12.4615 12.9808 12.4615 12.5961V9.82694H11.5385V12.5961H11.0769V9.82694H10.1539V12.5961H9.69233V9.82694H8.76926V12.5961C8.76926 12.9808 8.90387 13.3077 9.17311 13.5769C9.44234 13.8462 9.76926 13.9808 10.1539 13.9808V17.673ZM13.8462 17.673H14.7692V9.82694C14.2641 9.82694 13.8301 10.0077 13.4673 10.3692C13.1045 10.7308 12.9231 11.1654 12.9231 11.6731V14.4423H13.8462V17.673ZM4.50003 20.5V9.25002L12 3.61542L19.5 9.25002V20.5H4.50003Z" fill="#FF8000"/>
</svg>
